<svg version="1.1" id="Layer_1" x="0px" y="0px" viewBox="0 0 12 12" width="128" height="128" xmlns="http://www.w3.org/2000/svg">
  <defs></defs>
  <style type="text/css">
    .st0{fill:#666666;}
  </style>
  <g style="" transform="matrix(1.70009, 0, 0, 1.70009, -2.50045, -2.50045)">
    <circle style="fill: #666666" cx="5" cy="5" r="3.0"></circle>
    <circle style="fill: white;" cx="5" cy="5" r="2.7"></circle>
  </g>
  <g style="" transform="matrix(0.244815, 0, 0, 0.244815, 2.939813, 3.001016)">
    <path class="st0" d="M18.3,8.1c0-0.2-0.2-0.4-0.4-0.4H7.2C7,7.7,6.8,7.9,6.8,8.1S7,8.5,7.2,8.5h10.8C18.1,8.5,18.3,8.3,18.3,8.1z"></path>
    <path class="st0" d="M24.5,22.3c-1.1,0-1.7,0.3-2.2,0.5c-0.4,0.2-0.8,0.4-1.4,0.4l2.1-6.4c0,0,0,0,0,0c0,0,0,0,0,0l0.8-2.4
		c0.1-0.2,0-0.4-0.2-0.5l-2.9-1.3V6.8c0-0.5-0.4-0.8-0.8-0.8h-1.7V3.4c0-0.5-0.4-0.8-0.8-0.8h-4.3V0.7c0-0.2-0.2-0.4-0.4-0.4
		s-0.4,0.2-0.4,0.4v1.9H7.8C7.3,2.6,7,2.9,6.9,3.4V6H5.3C4.9,6,4.5,6.3,4.5,6.8v5.9l-3,1.4c-0.2,0.1-0.3,0.3-0.2,0.5l0.8,2.3
		c0,0,0,0,0,0c0,0,0,0,0,0l2.2,6.4c-0.8,0-1.2-0.2-1.6-0.4c-0.5-0.3-1.1-0.5-2.2-0.5c-0.2,0-0.4,0.2-0.4,0.4s0.2,0.4,0.4,0.4
		c0.9,0,1.4,0.2,1.8,0.5c0.5,0.3,1.1,0.5,2.2,0.5s1.7-0.3,2.2-0.5c0.5-0.2,0.9-0.5,1.8-0.5s1.4,0.2,1.8,0.5c0.5,0.3,1.1,0.5,2.2,0.5
		c1.1,0,1.7-0.3,2.2-0.5c0.5-0.2,0.9-0.5,1.8-0.5s1.4,0.2,1.8,0.5c0.5,0.3,1.1,0.5,2.2,0.5s1.7-0.3,2.2-0.5c0.5-0.2,0.9-0.5,1.8-0.5
		c0.2,0,0.4-0.2,0.4-0.4S24.7,22.3,24.5,22.3z M22.4,16.2l-9.4-4.3V10l10,4.5L22.4,16.2z M7.7,3.4C7.7,3.3,7.7,3.3,7.7,3.4l9.5-0.1
		c0,0,0.1,0,0.1,0.1V6H7.7V3.4z M5.3,6.8C5.3,6.7,5.3,6.7,5.3,6.8l14.5-0.1c0,0,0.1,0,0.1,0.1v5.5l-7.1-3.2c0,0,0,0,0,0
		c0,0-0.1,0-0.2,0s-0.1,0-0.2,0c0,0,0,0,0,0l-7.2,3.2V6.8z M12.2,10v1.8l-9.5,4.4l-0.6-1.6L12.2,10z M16.5,22.3
		c-1.1,0-1.7,0.3-2.2,0.5c-0.5,0.2-0.9,0.5-1.8,0.5c-0.9,0-1.4-0.2-1.8-0.5c-0.5-0.3-1.1-0.5-2.2-0.5s-1.7,0.3-2.2,0.5
		C6,23,5.6,23.2,5.1,23.3l-2.2-6.4l9.3-4.3v5.9c0,0.2,0.2,0.4,0.4,0.4s0.4-0.2,0.4-0.4v-5.8l9.2,4.2l-2.1,6.4
		c-0.6-0.1-1-0.2-1.4-0.4C18.2,22.6,17.6,22.3,16.5,22.3z"></path>
  </g>
</svg>
